# xmcd
#
# Track frame offsets: 
#        150
#        19244
#        38293
#        52429
#        65864
#        86581
#        103626
#        122771
#        137569
#        150613
#        166061
#        184430
#        201818
#        213054
#        253907
#
# Disc length: 4440 seconds
#
# Revision: 2
# Processed by: cddbd v1.5.2PL0 Copyright (c) Steve Scherf et al.
# Submitted via: ExactAudioCopyFreeDBPlugin 1.0
#
DISCID=d511560f
DTITLE=Culture Club - Waking Up With The House On Fire
DYEAR=1984
DGENRE=Rhythmic Soul
TTITLE0=Dangerous Man
TTITLE1=The War Song
TTITLE2=Unfortunate Thing
TTITLE3=Crime Time
TTITLE4=Mistake No 3
TTITLE5=The Dive
TTITLE6=The Medal Song
TTITLE7=Don't Talk About It
TTITLE8=Mannequin
TTITLE9=Hello Goodbye
TTITLE10=La Cancion De Guerra
TTITLE11=Love Is Love
TTITLE12=The Dream
TTITLE13=Don't Go Down That Street
TTITLE14=Data
EXTD=YEAR: 1984
EXTT0=
EXTT1=
EXTT2=
EXTT3=
EXTT4=
EXTT5=
EXTT6=
EXTT7=
EXTT8=
EXTT9=
EXTT10=
EXTT11=
EXTT12=
EXTT13=
EXTT14=
PLAYORDER=
